<svg width="150" height="52" viewBox="0 0 252 52" fill="none" xmlns="http://www.w3.org/2000/svg">
<path fill-rule="evenodd" clip-rule="evenodd" d="M235.577 51V21.25H230.327V16.28H235.577V10.26C235.577 6.90001 236.417 4.45001 238.097 2.91001C239.777 1.37001 242.227 0.600006 245.447 0.600006H248.947V5.64001H246.357C244.584 5.64001 243.324 6.01334 242.577 6.76001C241.831 7.46001 241.457 8.67334 241.457 10.4V16.28H249.997V21.25H241.457V51H235.577ZM0.180054 2V51H30.4901V46.17H6.06005V28.67H27V23.91H6.06005V6.83001H30.4901V2H0.180054ZM46.3418 49.6C49.0018 51.0933 51.9884 51.84 55.3018 51.84C59.4084 51.84 62.8851 50.7433 65.7318 48.55C68.5784 46.3567 70.3518 43.51 71.0518 40.01H65.0318C64.5651 42.2033 63.4218 43.9067 61.6018 45.12C59.7818 46.2867 57.6584 46.87 55.2318 46.87C53.2718 46.87 51.4284 46.38 49.7018 45.4C47.9751 44.3733 46.5751 42.88 45.5018 40.92C44.4284 38.96 43.8918 36.5333 43.8918 33.64C43.8918 30.7467 44.4284 28.32 45.5018 26.36C46.5751 24.4 47.9751 22.93 49.7018 21.95C51.4284 20.97 53.2718 20.48 55.2318 20.48C57.6584 20.48 59.7818 21.0867 61.6018 22.3C63.4218 23.4667 64.5651 25.1233 65.0318 27.27H71.0518C70.3051 23.6767 68.5084 20.8067 65.6618 18.66C62.8618 16.5133 59.4084 15.44 55.3018 15.44C51.9884 15.44 49.0018 16.21 46.3418 17.75C43.7284 19.2433 41.6518 21.3667 40.1118 24.12C38.6184 26.8267 37.8718 30 37.8718 33.64C37.8718 37.28 38.6184 40.4767 40.1118 43.23C41.6518 45.9367 43.7284 48.06 46.3418 49.6ZM95.0836 51.84C91.817 51.84 88.877 51.0933 86.2636 49.6C83.6503 48.1067 81.5736 46.0067 80.0336 43.3C78.5403 40.5467 77.7936 37.3267 77.7936 33.64C77.7936 29.9533 78.5636 26.7567 80.1036 24.05C81.6436 21.2967 83.7203 19.1733 86.3336 17.68C88.9937 16.1867 91.957 15.44 95.2236 15.44C98.4903 15.44 101.43 16.1867 104.044 17.68C106.657 19.1733 108.71 21.2967 110.204 24.05C111.744 26.7567 112.514 29.9533 112.514 33.64C112.514 37.3267 111.744 40.5467 110.204 43.3C108.664 46.0067 106.564 48.1067 103.904 49.6C101.29 51.0933 98.3503 51.84 95.0836 51.84ZM121.039 2V51H149.739V46.31H126.919V2H121.039ZM171.573 51.84C168.26 51.84 165.32 51.0933 162.753 49.6C160.186 48.06 158.156 45.9367 156.663 43.23C155.216 40.5233 154.493 37.3267 154.493 33.64C154.493 30 155.216 26.8267 156.663 24.12C158.11 21.3667 160.116 19.2433 162.683 17.75C165.296 16.21 168.306 15.44 171.713 15.44C175.073 15.44 177.966 16.21 180.393 17.75C182.866 19.2433 184.756 21.2267 186.063 23.7C187.37 26.1733 188.023 28.8333 188.023 31.68C188.023 32.1933 188 32.7067 187.953 33.22V34.97H160.303C160.443 37.63 161.05 39.8467 162.123 41.62C163.243 43.3467 164.62 44.6533 166.253 45.54C167.933 46.4267 169.706 46.87 171.573 46.87C174 46.87 176.03 46.31 177.663 45.19C179.296 44.07 180.486 42.5533 181.233 40.64H187.043C186.11 43.86 184.313 46.5433 181.653 48.69C179.04 50.79 175.68 51.84 171.573 51.84ZM171.573 20.41C168.773 20.41 166.276 21.2733 164.083 23C161.936 24.68 160.7 27.1533 160.373 30.42H182.213C182.073 27.2933 181 24.8433 178.993 23.07C176.986 21.2967 174.513 20.41 171.573 20.41ZM200.156 50.37C202.07 51.35 204.473 51.84 207.366 51.84C210.54 51.84 213.06 51.1633 214.926 49.81C216.84 48.41 218.286 46.73 219.266 44.77L219.616 51H224.866V29.65C224.866 25.3567 223.63 21.9267 221.156 19.36C218.73 16.7467 215.09 15.44 210.236 15.44C207.763 15.44 205.43 15.9067 203.236 16.84C201.043 17.7267 199.2 19.0333 197.706 20.76C196.26 22.4867 195.42 24.61 195.186 27.13H201.206C201.626 24.9367 202.653 23.28 204.286 22.16C205.966 20.9933 207.95 20.41 210.236 20.41C212.896 20.41 215.02 21.2033 216.606 22.79C218.193 24.33 218.986 26.6167 218.986 29.65V30.07H209.606C204.94 30.07 201.253 31.0267 198.546 32.94C195.84 34.8533 194.486 37.5833 194.486 41.13C194.486 43.0433 194.953 44.8167 195.886 46.45C196.82 48.0833 198.243 49.39 200.156 50.37ZM214.016 45.12C212.43 46.2867 210.516 46.87 208.276 46.87C205.85 46.87 203.96 46.3333 202.606 45.26C201.3 44.14 200.646 42.67 200.646 40.85C200.646 39.0767 201.346 37.6067 202.746 36.44C204.193 35.2267 206.643 34.62 210.096 34.62H218.986V34.69C218.986 36.7433 218.566 38.7033 217.726 40.57C216.886 42.4367 215.65 43.9533 214.016 45.12ZM100.304 22.8776C88.2457 29.8429 87.5651 35.1023 89.6816 44.1036C93.363 40.634 96.2124 36.18 98.3242 30.3635C97.9281 35.3596 95.6907 40.2632 92.0391 45.8387C92.4821 45.5317 92.917 45.2334 93.3426 44.9415C100.889 39.7644 105.502 36.5999 100.304 22.8776Z" fill="white"/>
</svg>
